<svg width="23" height="29" viewBox="0 0 23 29" fill="none" xmlns="http://www.w3.org/2000/svg">
<path d="M6.84647 7.88288L9.27671 10.3062C9.17729 10.3874 9.07795 10.4684 8.97858 10.5586C6.49944 12.7689 4.5162 15.4763 3.15863 18.5036C1.80106 21.5309 1.09972 24.8099 1.10052 28.1261C1.10052 28.4233 1.10957 28.7116 1.11861 29H3.91027C3.89218 28.7116 3.88316 28.4233 3.88316 28.1261C3.88124 25.1744 4.51129 22.2564 5.73122 19.567C6.95115 16.8777 8.73283 14.479 10.9571 12.5315C11.0565 12.4413 11.1558 12.3604 11.2553 12.2792L21.7171 22.7207C21.8225 22.8251 21.9565 22.8961 22.1023 22.9247C22.248 22.9533 22.399 22.9382 22.5362 22.8814C22.6734 22.8245 22.7907 22.7284 22.8732 22.6052C22.9557 22.482 22.9999 22.3372 23 22.1891V0.747632C23.0002 0.649376 22.981 0.552036 22.9434 0.461215C22.9058 0.370395 22.8506 0.287899 22.7809 0.218429C22.7112 0.148958 22.6284 0.0938949 22.5373 0.0564181C22.4463 0.0189414 22.3486 -0.0002087 22.2501 5.00794e-05H0.757265C0.607882 -0.0016746 0.461381 0.0411829 0.33664 0.12316C0.211899 0.205137 0.11462 0.322426 0.0572942 0.459995C-3.13594e-05 0.597564 -0.0147515 0.749084 0.0149945 0.895074C0.0447405 1.04106 0.11758 1.17485 0.224198 1.2792L6.84647 7.88288Z" fill="#FF8500"/>
</svg>
