<svg width="706" height="914" viewBox="0 0 706 914" fill="none" xmlns="http://www.w3.org/2000/svg">
<g style="mix-blend-mode:soft-light" clip-path="url(#clip0)">
<path d="M6.8477 131.537L45.7441 170.434C44.1529 171.737 42.5629 173.034 40.9726 174.482C1.29354 209.958 -30.4485 253.413 -52.1767 302.002C-73.9049 350.592 -85.1299 403.221 -85.1171 456.447C-85.1171 461.217 -84.9723 465.844 -84.8276 470.472H-40.1466C-40.436 465.844 -40.5806 461.217 -40.5806 456.447C-40.6112 409.072 -30.5271 362.236 -11.0019 319.071C8.52325 275.906 37.0393 237.407 72.6392 206.148C74.2295 204.701 75.8201 203.401 77.4113 202.098L244.855 369.689C246.541 371.365 248.686 372.504 251.019 372.963C253.352 373.422 255.769 373.18 257.965 372.267C260.161 371.355 262.038 369.813 263.359 367.836C264.679 365.858 265.386 363.534 265.388 361.156V17.013C265.392 15.436 265.084 13.8749 264.482 12.4172C263.88 10.9595 262.996 9.63416 261.881 8.51915C260.766 7.40413 259.441 6.52034 257.983 5.91883C256.526 5.31732 254.963 5.01118 253.386 5.01533H-90.6104C-93.0013 4.98768 -95.3461 5.67552 -97.3425 6.99128C-99.339 8.30703 -100.896 10.1896 -101.814 12.3976C-102.731 14.6056 -102.967 17.0376 -102.491 19.3807C-102.015 21.7239 -100.849 23.8712 -99.1422 25.5461L6.8477 131.537Z" stroke="#0b2ab8" stroke-width="10.0291" stroke-miterlimit="10"/>
<path d="M197.136 484.932H-100.879C-103.261 484.926 -105.59 485.626 -107.573 486.945C-109.555 488.264 -111.102 490.142 -112.016 492.342C-112.93 494.541 -113.17 496.962 -112.706 499.298C-112.242 501.634 -111.095 503.78 -109.41 505.463L-76.0084 539.01L39.5258 654.543C41.8079 656.769 44.8688 658.015 48.0564 658.015C51.2441 658.015 54.3056 656.769 56.5877 654.543L205.668 505.463C207.337 503.774 208.471 501.631 208.926 499.3C209.381 496.969 209.138 494.554 208.227 492.361C207.316 490.168 205.777 488.294 203.804 486.972C201.831 485.65 199.511 484.941 197.136 484.932V484.932Z" stroke="#0b2ab8" stroke-width="10.0291" stroke-miterlimit="10"/>
<path d="M244.821 544.694L95.8245 693.693C93.5634 695.954 92.2931 699.021 92.2931 702.219C92.2931 705.417 93.5634 708.484 95.8245 710.745L244.821 859.741C246.507 861.428 248.656 862.577 250.995 863.042C253.333 863.507 255.758 863.269 257.961 862.356C260.164 861.444 262.047 859.898 263.372 857.915C264.697 855.932 265.404 853.6 265.404 851.216V553.22C265.404 550.835 264.697 548.503 263.372 546.521C262.047 544.538 260.164 542.994 257.961 542.082C255.758 541.169 253.333 540.928 250.995 541.394C248.656 541.859 246.507 543.008 244.821 544.694Z" stroke="#0b2ab8" stroke-width="10.0291" stroke-miterlimit="10"/>
<path d="M540.554 743.76C542.289 742.46 543.88 741.013 545.471 739.565C585.506 704.064 617.55 660.47 639.485 611.665C661.42 562.859 672.748 509.954 672.718 456.446C672.718 452.253 672.717 448.06 672.427 443.866H627.893C628.037 448.06 628.18 452.253 628.18 456.446C628.206 504.087 618.025 551.18 598.321 594.555C578.616 637.929 549.846 676.58 513.949 707.901C512.214 709.348 510.623 710.79 508.888 712.093H508.887L341.444 544.649C339.755 542.979 337.61 541.845 335.279 541.39C332.948 540.935 330.535 541.179 328.341 542.09C326.148 543.002 324.273 544.539 322.951 546.512C321.629 548.486 320.92 550.807 320.911 553.182V895.876C320.893 897.464 321.189 899.04 321.784 900.513C322.378 901.986 323.26 903.325 324.376 904.455C325.492 905.585 326.821 906.482 328.287 907.095C329.752 907.707 331.325 908.025 332.913 908.025H675.754C678.129 908.017 680.448 907.305 682.421 905.983C684.394 904.661 685.933 902.787 686.844 900.594C687.755 898.401 687.999 895.988 687.543 893.657C687.088 891.326 685.954 889.181 684.284 887.492L540.554 743.76Z" stroke="#0b2ab8" stroke-width="10.0291" stroke-miterlimit="10"/>
<path d="M341.443 369.69L491.102 220.029C493.327 217.747 494.573 214.686 494.573 211.499C494.573 208.311 493.327 205.25 491.102 202.968L374.412 86.2769L341.443 53.3077C339.756 51.6317 337.611 50.4929 335.278 50.0341C332.945 49.5752 330.528 49.817 328.333 50.7294C326.137 51.6419 324.26 53.184 322.94 55.1612C321.619 57.1385 320.913 59.463 320.91 61.8408V361.156C320.913 363.534 321.619 365.859 322.94 367.836C324.26 369.813 326.137 371.355 328.333 372.268C330.528 373.18 332.945 373.422 335.278 372.963C337.611 372.504 339.756 371.366 341.443 369.69V369.69Z" stroke="#0b2ab8" stroke-width="10.0291" stroke-miterlimit="10"/>
<path d="M697.01 408.874L547.352 259.214C546.238 258.081 544.911 257.181 543.446 256.567C541.982 255.953 540.409 255.637 538.821 255.637C537.233 255.637 535.659 255.953 534.195 256.567C532.73 257.181 531.403 258.081 530.289 259.214L380.63 408.874C378.96 410.563 377.827 412.706 377.371 415.037C376.916 417.368 377.159 419.783 378.07 421.976C378.982 424.169 380.522 426.044 382.495 427.365C384.468 428.687 386.787 429.397 389.162 429.405H688.478C690.853 429.397 693.173 428.687 695.146 427.365C697.12 426.044 698.658 424.17 699.57 421.976C700.481 419.783 700.724 417.368 700.269 415.037C699.813 412.706 698.68 410.563 697.01 408.874Z" stroke="#0b2ab8" stroke-width="10.0291" stroke-miterlimit="10"/>
</g>
<defs>
<clipPath id="clip0">
<rect width="823.536" height="913.039" fill="white" transform="translate(-118)"/>
</clipPath>
</defs>
</svg>
