<svg width="295" height="55" viewBox="0 0 295 55" fill="none" xmlns="http://www.w3.org/2000/svg">
<g clip-path="url(#clip0)">
<path d="M8.40745 8.69389C8.46126 8.74871 8.50351 8.81402 8.53163 8.88585C8.55976 8.95767 8.57318 9.03453 8.57109 9.11176C8.56899 9.189 8.55142 9.265 8.51944 9.33516C8.48746 9.40532 8.44174 9.46818 8.38504 9.51994C7.71139 10.1467 7.07329 10.8115 6.47381 11.5111C5.95084 12.1247 5.45014 12.7607 4.9883 13.4249C3.24428 15.9059 1.97949 18.6981 1.26052 21.6544C0.972338 22.8283 0.772851 24.0226 0.663783 25.2271C0.657306 25.3063 0.667144 25.3859 0.692674 25.461C0.718204 25.5361 0.75887 25.605 0.812094 25.6633C0.865319 25.7217 0.929942 25.7682 1.00187 25.8C1.0738 25.8318 1.15147 25.8481 1.22995 25.8479H4.00945C4.14919 25.8472 4.28369 25.794 4.38679 25.6986C4.4899 25.6031 4.55425 25.4723 4.56734 25.3316C4.90423 22.0905 6.00865 18.9793 7.78695 16.2619C8.75305 14.793 9.89684 13.452 11.1917 12.2701C11.3003 12.1737 11.4411 12.1228 11.5855 12.1277C11.7299 12.1327 11.867 12.1931 11.9688 12.2967L22.0393 22.4851C22.1183 22.5651 22.219 22.6195 22.3286 22.6416C22.4383 22.6637 22.5519 22.6523 22.6552 22.609C22.7585 22.5658 22.8467 22.4925 22.9088 22.3985C22.9709 22.3044 23.0041 22.1939 23.0041 22.0808V0.57182C23.0041 0.420164 22.9446 0.274726 22.8386 0.167489C22.7326 0.0602527 22.5888 3.21711e-06 22.4389 1.47612e-08H1.17846C1.06666 -2.56812e-05 0.957366 0.0334974 0.864403 0.0963253C0.77144 0.159153 0.698984 0.248466 0.656203 0.352962C0.613422 0.457458 0.602239 0.572443 0.624066 0.683371C0.645893 0.794299 0.69975 0.89618 0.778825 0.976135L8.40745 8.69389Z" fill="#FE6A00"/>
<path d="M19.2798 29.2278H0.566308C0.454507 29.2278 0.345219 29.2613 0.252263 29.3242C0.159307 29.387 0.0868577 29.4763 0.0440806 29.5808C0.00130352 29.6853 -0.00988181 29.8003 0.0119399 29.9112C0.0337617 30.0222 0.0876123 30.1241 0.166677 30.204L9.52342 39.6701C9.5759 39.7232 9.6382 39.7653 9.70677 39.7941C9.77534 39.8228 9.84883 39.8376 9.92305 39.8376C9.99727 39.8376 10.0708 39.8228 10.1393 39.7941C10.2079 39.7653 10.2702 39.7232 10.3227 39.6701L19.6794 30.204C19.7585 30.1241 19.8123 30.0222 19.8342 29.9112C19.856 29.8003 19.8448 29.6853 19.802 29.5808C19.7592 29.4763 19.6868 29.387 19.5938 29.3242C19.5009 29.2613 19.3916 29.2278 19.2798 29.2278Z" fill="#061887"/>
<path d="M22.04 32.5917L12.683 42.0581C12.577 42.1653 12.5175 42.3107 12.5175 42.4624C12.5175 42.614 12.577 42.7594 12.683 42.8667L22.04 52.333C22.119 52.413 22.2197 52.4675 22.3294 52.4896C22.439 52.5116 22.5527 52.5003 22.6559 52.457C22.7592 52.4137 22.8475 52.3405 22.9096 52.2464C22.9717 52.1524 23.0049 52.0418 23.0048 51.9287V32.996C23.0049 32.8829 22.9717 32.7724 22.9096 32.6783C22.8475 32.5843 22.7592 32.511 22.6559 32.4677C22.5527 32.4244 22.439 32.4131 22.3294 32.4352C22.2197 32.4573 22.119 32.5117 22.04 32.5917Z" fill="#061887"/>
<path d="M42.8339 43.5284C43.3761 42.9053 43.885 42.2533 44.3584 41.5753C46.1024 39.0942 47.3672 36.302 48.0862 33.3457C48.3691 32.196 48.5663 31.0264 48.6763 29.8468C48.6829 29.7676 48.6731 29.6879 48.6477 29.6127C48.6222 29.5375 48.5816 29.4685 48.5284 29.4101C48.4751 29.3517 48.4105 29.3051 48.3385 29.2732C48.2665 29.2414 48.1888 29.2251 48.1102 29.2253H45.3294C45.19 29.226 45.0559 29.2788 44.9528 29.3737C44.8498 29.4685 44.7851 29.5987 44.7713 29.7389C44.6403 30.9612 44.3978 32.1686 44.0468 33.3457C43.4834 35.2568 42.6454 37.0737 41.5597 38.7383C41.1059 39.433 40.6098 40.0985 40.0742 40.7309C39.4693 41.4572 38.813 42.138 38.1104 42.768C38.0017 42.8635 37.8612 42.9136 37.7173 42.9082C37.5734 42.9028 37.4369 42.8423 37.3355 42.739L27.3073 32.5938C27.2283 32.5138 27.1275 32.4593 27.0179 32.4373C26.9083 32.4152 26.7946 32.4265 26.6914 32.4698C26.5881 32.5131 26.4998 32.5863 26.4377 32.6804C26.3756 32.7744 26.3424 32.885 26.3424 32.9981V54.4283C26.3424 54.58 26.402 54.7254 26.508 54.8326C26.614 54.9399 26.7577 55.0001 26.9077 55.0001H48.0904C48.2022 55.0001 48.3114 54.9666 48.4044 54.9038C48.4974 54.841 48.5698 54.7516 48.6126 54.6471C48.6554 54.5427 48.6665 54.4277 48.6447 54.3168C48.6229 54.2058 48.5691 54.104 48.49 54.024L40.8963 46.3414C40.8424 46.2865 40.8 46.2211 40.7719 46.1491C40.7437 46.0771 40.7304 46.0001 40.7326 45.9227C40.7348 45.8453 40.7526 45.7692 40.7848 45.699C40.817 45.6287 40.8631 45.5659 40.9201 45.5143C41.5955 44.8904 42.2345 44.2273 42.8339 43.5284Z" fill="#FE6A00"/>
<path d="M27.3082 22.4862L36.7035 12.9809C36.756 12.9278 36.7977 12.8648 36.8261 12.7954C36.8545 12.726 36.8691 12.6516 36.8691 12.5765C36.8691 12.5014 36.8545 12.4271 36.8261 12.3577C36.7977 12.2883 36.756 12.2253 36.7035 12.1722L27.3082 2.66693C27.2291 2.58698 27.1284 2.53253 27.0188 2.51049C26.9091 2.48844 26.7955 2.49977 26.6922 2.54306C26.5889 2.58635 26.5007 2.65964 26.4386 2.75368C26.3765 2.84772 26.3433 2.95828 26.3433 3.07137V22.0818C26.3433 22.1949 26.3765 22.3055 26.4386 22.3995C26.5007 22.4935 26.589 22.5668 26.6922 22.6101C26.7955 22.6534 26.9092 22.6647 27.0188 22.6426C27.1284 22.6206 27.2291 22.5661 27.3082 22.4862Z" fill="#061887"/>
<path d="M49.2589 24.8742L39.8632 15.3687C39.8107 15.3156 39.7484 15.2735 39.6798 15.2447C39.6112 15.216 39.5377 15.2012 39.4635 15.2012C39.3892 15.2012 39.3157 15.216 39.2471 15.2447C39.1786 15.2735 39.1162 15.3156 39.0638 15.3687L29.6682 24.8742C29.5891 24.9542 29.5353 25.0561 29.5134 25.167C29.4916 25.2779 29.5028 25.3929 29.5456 25.4974C29.5884 25.6019 29.6608 25.6912 29.7538 25.754C29.8467 25.8169 29.956 25.8504 30.0678 25.8504H48.8592C48.971 25.8504 49.0803 25.8169 49.1733 25.754C49.2663 25.6912 49.3387 25.6019 49.3815 25.4974C49.4243 25.3929 49.4355 25.2779 49.4137 25.167C49.3918 25.0561 49.338 24.9542 49.2589 24.8742Z" fill="#061887"/>
<path d="M11.1856 17.1857C9.42644 19.5278 8.30082 22.2932 7.91965 25.2094C7.91018 25.2897 7.9177 25.3712 7.94172 25.4484C7.96574 25.5256 8.0057 25.5967 8.05895 25.6571C8.11221 25.7175 8.17754 25.7657 8.25062 25.7986C8.32369 25.8315 8.40285 25.8483 8.48283 25.8479H19.2805C19.3923 25.8478 19.5016 25.8143 19.5945 25.7515C19.6875 25.6887 19.7599 25.5993 19.8027 25.4949C19.8455 25.3904 19.8567 25.2754 19.8348 25.1645C19.813 25.0536 19.7592 24.9517 19.6802 24.8717L12.0332 17.1354C11.9767 17.0777 11.9087 17.0328 11.8336 17.0037C11.7586 16.9746 11.6783 16.962 11.5982 16.9668C11.518 16.9716 11.4397 16.9936 11.3686 17.0313C11.2974 17.0691 11.235 17.1217 11.1856 17.1857Z" fill="#061887"/>
<path d="M38.1335 37.8617C39.8959 35.5297 41.0296 32.7747 41.4236 29.8664C41.4335 29.7859 41.4263 29.7042 41.4025 29.6267C41.3787 29.5492 41.3388 29.4778 41.2855 29.4171C41.2322 29.3564 41.1668 29.3079 41.0936 29.2749C41.0203 29.2418 40.9409 29.2249 40.8607 29.2253H30.0662C29.9544 29.2254 29.8451 29.2589 29.7522 29.3217C29.6592 29.3846 29.5868 29.4739 29.544 29.5783C29.5012 29.6828 29.49 29.7978 29.5118 29.9087C29.5337 30.0196 29.5875 30.1215 29.6665 30.2015L37.2867 37.9109C37.3432 37.9685 37.4111 38.0134 37.486 38.0425C37.5609 38.0715 37.641 38.0842 37.7211 38.0795C37.8012 38.0749 37.8794 38.053 37.9505 38.0155C38.0216 37.9779 38.084 37.9255 38.1335 37.8617Z" fill="#061887"/>
<path d="M119.339 17.8221C119.084 17.5596 118.78 17.3515 118.445 17.2099C118.109 17.0684 117.749 16.9963 117.385 16.9981H94.2388C93.5062 16.9989 92.8039 17.2938 92.2858 17.8179C91.7678 18.3419 91.4764 19.0525 91.4755 19.7937V35.1125C91.4762 35.8538 91.7676 36.5645 92.2856 37.0887C92.8037 37.613 93.5061 37.9079 94.2388 37.9088H117.385C118.118 37.9078 118.82 37.6128 119.338 37.0886C119.856 36.5644 120.147 35.8537 120.148 35.1125V19.7937C120.15 19.4271 120.08 19.0637 119.941 18.7251C119.802 18.3865 119.597 18.0795 119.339 17.8221ZM98.1123 33.3027V21.6072H113.512V33.3027H98.1123Z" fill="#FE6A00"/>
<path d="M266.988 23.5571V19.7935C266.982 19.0526 266.688 18.3438 266.17 17.8205C265.651 17.2973 264.95 17.0017 264.217 16.9979H241.355C240.622 16.9989 239.92 17.2937 239.402 17.8178C238.884 18.3419 238.592 19.0524 238.592 19.7935V35.1123C238.592 35.8536 238.884 36.5643 239.402 37.0885C239.92 37.6127 240.622 37.9077 241.355 37.9087H264.217C264.951 37.9087 265.655 37.6143 266.174 37.09C266.693 36.5658 266.986 35.8545 266.988 35.1123V31.3569H260.351V33.3025H245.228V21.6069H260.351V23.5571H266.988Z" fill="#061887"/>
<path d="M85.9675 24.8085H68.8969V21.6068H86.0894C86.8053 21.5888 87.485 21.2845 87.9796 20.7605C88.4743 20.2365 88.7434 19.5356 88.7282 18.8112V16.9984L65.0231 16.9977C64.2904 16.9987 63.5881 17.2936 63.0701 17.8179C62.5521 18.3421 62.2608 19.0528 62.2602 19.794V26.7276C62.261 27.4686 62.5524 28.179 63.0704 28.703C63.5884 29.2269 64.2906 29.5216 65.0231 29.5224H82.0937V33.3023H62.2602V35.1158C62.2449 35.8402 62.5141 36.5411 63.0087 37.0651C63.5033 37.5891 64.1831 37.8934 64.899 37.9114H83.6257L84.0373 37.9069L85.9675 37.9077C86.7 37.9069 87.4022 37.6122 87.9202 37.0883C88.4382 36.5643 88.7295 35.8539 88.7304 35.1128V27.8573C88.7304 26.2336 87.4393 24.8085 85.9675 24.8085Z" fill="#FE6A00"/>
<path d="M223.624 17.2023L223.491 17.0007H217.232L204.286 37.9122H211.075L220.366 22.9057L222.738 26.7358H220.943C219.844 26.7372 218.79 27.1796 218.013 27.966C217.236 28.7524 216.799 29.8186 216.798 30.9306V31.4505H225.656L229.657 37.9122H236.446L223.624 17.2023Z" fill="#061887"/>
<path d="M295 21.6081V16.9957H269.081V37.9177H274.185L274.611 37.9101H295V33.2977H275.725V29.5284L293.236 29.528V24.9115L279.68 24.9119C278.752 24.9132 277.853 25.237 277.133 25.8291C276.413 26.4211 275.916 27.2454 275.725 28.164V21.6081H295Z" fill="#061887"/>
<path d="M133.349 33.3884C132.511 33.39 131.694 33.6547 131.011 34.1461C130.329 34.6375 129.813 35.3312 129.537 36.1315L129.537 16.9957H122.893L122.893 38.0034H129.308V38.0049H147.153V33.3884H133.349Z" fill="#FE6A00"/>
<path d="M188.949 33.3027C188.111 33.3043 187.294 33.569 186.612 34.0604C185.929 34.5518 185.414 35.2456 185.138 36.0459V16.9957H178.494V37.9177H184.908V37.9192H202.754V33.3027L188.949 33.3027Z" fill="#061887"/>
<path d="M149.246 16.9957V37.9177H155.891V29.5247H175.749V16.9957H149.246ZM159.924 24.8065C158.876 24.8479 157.881 25.2839 157.135 26.029C156.389 26.774 155.945 27.7743 155.891 28.8335V21.6081H169.105V24.8065H159.924Z" fill="#061887"/>
</g>
<defs>
<clipPath id="clip0">
<rect width="295" height="55" fill="white"/>
</clipPath>
</defs>
</svg>
